<?xml version="1.0" standalone="no"?>
<!DOCTYPE svg PUBLIC "-//W3C//DTD SVG 1.1//EN" "http://www.w3.org/Graphics/SVG/1.1/DTD/svg11.dtd" >
<svg xmlns="http://www.w3.org/2000/svg">
<metadata>
Created by FontForge 20120731 at Tue Jun 13 10:11:55 2017
 By admin
</metadata>
<defs>
<font id="iconfont" horiz-adv-x="1024" >
  <font-face 
    font-family="iconfont"
    font-weight="500"
    font-stretch="normal"
    units-per-em="1024"
    panose-1="2 0 6 3 0 0 0 0 0 0"
    ascent="896"
    descent="-128"
    x-height="792"
    bbox="0 -212.118 1026 896"
    underline-thickness="0"
    underline-position="0"
    unicode-range="U+0078-E936"
  />
<missing-glyph 
 />
    <glyph glyph-name=".notdef" 
 />
    <glyph glyph-name=".notdef" 
 />
    <glyph glyph-name=".null" horiz-adv-x="0" 
 />
    <glyph glyph-name="nonmarkingreturn" horiz-adv-x="341" 
 />
    <glyph glyph-name="x" unicode="x" horiz-adv-x="1001" 
d="M281 543q-27 -1 -53 -1h-83q-18 0 -36.5 -6t-32.5 -18.5t-23 -32t-9 -45.5v-76h912v41q0 16 -0.5 30t-0.5 18q0 13 -5 29t-17 29.5t-31.5 22.5t-49.5 9h-133v-97h-438v97zM955 310v-52q0 -23 0.5 -52t0.5 -58t-10.5 -47.5t-26 -30t-33 -16t-31.5 -4.5q-14 -1 -29.5 -0.5
t-29.5 0.5h-32l-45 128h-439l-44 -128h-29h-34q-20 0 -45 1q-25 0 -41 9.5t-25.5 23t-13.5 29.5t-4 30v167h911zM163 247q-12 0 -21 -8.5t-9 -21.5t9 -21.5t21 -8.5q13 0 22 8.5t9 21.5t-9 21.5t-22 8.5zM316 123q-8 -26 -14 -48q-5 -19 -10.5 -37t-7.5 -25t-3 -15t1 -14.5
t9.5 -10.5t21.5 -4h37h67h81h80h64h36q23 0 34 12t2 38q-5 13 -9.5 30.5t-9.5 34.5q-5 19 -11 39h-368zM336 498v228q0 11 2.5 23t10 21.5t20.5 15.5t34 6h188q31 0 51.5 -14.5t20.5 -52.5v-227h-327z" />
    <glyph glyph-name="baocun" unicode="&#xe602;" 
d="M949 698q7 -8 8 -18.5t1 -16.5v-550q0 -48 -32.5 -81t-86.5 -33h-592q-56 0 -88 27.5t-32 84.5v599q0 55 32 88t88 33h543q10 0 20 -2.5t14 -6.5zM768 735q-2 32 -34 32h-446q-16 1 -25 -8t-9 -22v-167q0 -10 4.5 -20.5t13 -19.5t19 -14.5t22.5 -5.5h389q28 0 47 16.5
t19 48.5v160zM768 274q0 44 -45 45h-423q-24 0 -35 -12t-11 -33v-149h514v149z" />
    <glyph glyph-name="tupian" unicode="&#xe604;" horiz-adv-x="1000" 
d="M905 692h-719q-16 0 -28 -11.5t-12 -28.5v-638q0 -17 12 -28.5t28 -11.5h719q16 0 28 11.5t12 28.5v638q0 17 -12 28.5t-28 11.5zM825 93h-559v200l120 120l200 -200l119 120l120 -120v-120zM745 413q-33 0 -56.5 23.5t-23.5 56.5t23.5 56t56.5 23t56.5 -23t23.5 -56
t-23.5 -56.5t-56.5 -23.5z" />
    <glyph glyph-name="gengduo" unicode="&#xe624;" horiz-adv-x="1000" 
d="M515 316zM408 316v4q0 45 31.5 76t76 31t75.5 -31t31 -76v-4v-4q0 -44 -31 -75.5t-75.5 -31.5t-76 31.5t-31.5 75.5v4zM186 316zM79 316v4q0 45 31.5 76t76 31t75.5 -31t31 -76v-4v-4q0 -44 -31 -75.5t-75.5 -31.5t-76 31.5t-31.5 75.5v4zM843 316zM736 316v4
q0 45 31.5 76t76 31t75.5 -31t31 -76v-4v-4q0 -44 -31 -75.5t-75.5 -31.5t-76 31.5t-31.5 75.5v4z" />
    <glyph glyph-name="add" unicode="&#xe600;" 
d="M995 420h-362v359h-241v-359h-362v-240h362v-360h241v360h362v240z" />
    <glyph glyph-name="liebiao" unicode="&#xe60d;" 
d="M969 728h-625q-24 0 -40.5 -16.5t-16.5 -40.5v-28q0 -24 16.5 -40.5t40.5 -16.5h625q23 0 40 16.5t17 40.5v28q0 24 -17 40.5t-40 16.5zM969 359h-625q-24 0 -40.5 -17t-16.5 -40v-29q0 -23 16.5 -39.5t40.5 -16.5h625q23 0 40 16.5t17 39.5v29q0 23 -17 40t-40 17z
M969 -11h-625q-24 0 -40.5 -16.5t-16.5 -40.5v-28q0 -24 16.5 -40.5t40.5 -16.5h625q23 0 40 16.5t17 40.5v28q0 24 -17 40.5t-40 16.5zM88 728h-29q-23 0 -39.5 -16.5t-16.5 -40.5v-28q0 -24 16.5 -40.5t39.5 -16.5h29q23 0 40 16.5t17 40.5v28q0 24 -17 40.5t-40 16.5z
M88 -11h-29q-23 0 -39.5 -16.5t-16.5 -40.5v-28q0 -24 16.5 -40.5t39.5 -16.5h29q23 0 40 16.5t17 40.5v28q0 24 -17 40.5t-40 16.5zM88 359h-29q-23 0 -39.5 -17t-16.5 -40v-29q0 -23 16.5 -39.5t39.5 -16.5h29q23 0 40 16.5t17 39.5v29q0 23 -17 40t-40 17z" />
    <glyph glyph-name="camera" unicode="&#xe643;" 
d="M960 620h-128q-27 0 -45.5 18.5t-18.5 45.5t-18.5 45.5t-45.5 18.5h-384q-27 0 -45.5 -18.5t-18.5 -45.5t-18.5 -45.5t-45.5 -18.5h-128q-27 0 -45.5 -18.5t-18.5 -45.5v-640q0 -27 18.5 -45.5t45.5 -18.5h896q27 0 45.5 18.5t18.5 45.5v640q0 27 -18.5 45.5t-45.5 18.5z
M512 -20q-133 0 -226.5 93.5t-93.5 226.5t93.5 226.5t226.5 93.5t226.5 -93.5t93.5 -226.5t-93.5 -226.5t-226.5 -93.5zM512 492q-80 0 -136 -56t-56 -136q0 -79 56 -135.5t136 -56.5t136 56.5t56 135.5q0 80 -56 136t-136 56z" />
    <glyph glyph-name="meng" unicode="&#xe655;" 
d="M236 223h226v61l1 248q0 78 -60 96q-14 4 -29.5 4.5t-28.5 -0.5t-31.5 -5t-27.5 -7t-27.5 -8.5t-22.5 -6.5v27h-102v-430h102v21v0zM359 305h-123v102h123v-102zM359 540v-72h-123v84q103 41 121 -3zM605 345h164v-25v-8v-7.5t-1 -5t-2.5 -4.5l-4.5 -3t-7.5 -2.5
t-11.5 -0.5h-55l2 -29q8 -5 22 -12t51 -18.5t68 -11.5t49 14q8 7 12 20.5t4 23.5v10v275q0 83 -72 93q-51 6 -112 -1t-106 -26v5h-102v-409h102v122zM605 427v41h179v-41h-179zM747 597q12 -2 17.5 -12t5.5 -18l-1 -9v-28h-164v44q86 35 142 23zM892 89q0 42 -16.5 68.5
t-69.5 36.5q-47 10 -116.5 10t-133 -6t-120.5 -16q-142 -25 -179 -41v20h-123v-164h-21v-102h799v102h-20v92zM769 75v-78h-103v139q58 -2 80.5 -17.5t22.5 -43.5zM564 -3h-102v123q27 8 102 13v-136v0zM257 71q28 7 82 27v-101h-82v74z" />
    <glyph glyph-name="QQqun" unicode="&#xe621;" 
d="M492 181q-7 1 -11 12t-4 21l-1 11q5 4 13 13t22.5 36t19.5 53q12 0 21 16.5t8 37t-13 31.5l1 13.5t2 24.5t-0.5 29t-6 32.5t-14 30.5t-23.5 26.5t-37.5 17.5t-53 7t-52.5 -7t-37 -17.5t-24 -26.5t-14 -30.5t-5.5 -32.5t-1 -29t2 -24.5l1.5 -13.5q-12 -11 -13 -31.5
t7.5 -37t21.5 -16.5q4 -26 18 -51.5t25 -38.5l11 -12q0 -42 -15 -44q-21 -3 -57.5 -18.5t-76.5 -38.5t-68.5 -55t-28.5 -63h307h307q0 31 -29 63t-68.5 55t-76.5 38.5t-57 18.5zM696 191q-6 1 -10 11.5t-4 19.5l-1 10q5 5 12 13.5t21 33.5t19 50q11 0 19.5 15.5t7.5 35
t-12 29.5l1 13t1.5 23t-1 27t-5 30.5t-12.5 28.5t-22.5 25.5t-35.5 17t-50 6.5q-22 0 -41 -4q16 -11 27 -26.5t15.5 -30.5t6.5 -33.5t1.5 -30t-2 -25.5t-1.5 -15q12 -10 13 -31t-8 -37t-21 -16q-9 -51 -49 -97l2 -2v0q0 -18 -4 -30q4 -16 12 -18q27 -4 74.5 -25t96.5 -58.5
t58 -74.5h110q0 29 -27.5 59.5t-65 52t-72 36t-53.5 17.5z" />
    <glyph glyph-name="rili" unicode="&#xe609;" 
d="M890 666h-43v13q0 29 -20.5 49.5t-49.5 20.5h-1q-29 0 -49.5 -20.5t-20.5 -49.5v-13h-387v13q0 29 -20.5 49.5t-49.5 20.5h-1q-29 0 -49.5 -20.5t-20.5 -49.5v-13h-43q-29 0 -49.5 -20.5t-20.5 -49.5v-671q0 -29 20.5 -50t49.5 -21h755q29 0 49.5 21t20.5 50v671
q0 29 -20.5 49.5t-49.5 20.5zM734 679q0 18 12 30t30 12h1q17 0 29.5 -12t12.5 -30v-125q0 -17 -12.5 -29.5t-29.5 -12.5h-1q-18 0 -30 12.5t-12 29.5v125zM206 679q0 18 12.5 30t29.5 12h1q18 0 30 -12t12 -30v-125q0 -17 -12 -29.5t-30 -12.5h-1q-17 0 -29.5 12.5
t-12.5 29.5v125zM890 -89h-755q-6 0 -10 4t-4 10v493h783v-493q0 -6 -4 -10t-10 -4zM224 318h129v-64h-129v64zM449 318h128v-64h-128v64zM673 318h126v-64h-126v64zM224 189h129v-63h-129v63zM449 189h128v-63h-128v63zM673 189h126v-63h-126v63zM224 63h129v-66h-129v66z
M449 63h128v-66h-128v66zM673 63h126v-66h-126v66z" />
    <glyph glyph-name="user1" unicode="&#xe601;" 
d="M791 120h-56q-46 0 -79 33t-33 79v36q36 43 54 101q0 3 2 5.5t5 5t4 3.5q16 16 19 40t-10 43q-6 11 -5 12q0 91 -1 99q-1 70 -40 110q-32 34 -85 44q-63 12 -122 -3q-57 -14 -87 -59q-24 -36 -26 -88q-1 -6 -1 -50.5v-50.5q1 -3 -0.5 -5.5t-3.5 -6t-3 -4.5
q-12 -21 -7 -45.5t23 -39.5q4 -3 9 -19q16 -49 51 -90v-38q0 -46 -33 -79t-79 -33h-56q-4 -1 -11.5 -3.5t-28.5 -15t-41 -29.5t-44.5 -48.5t-43.5 -71.5v-56q0 -23 16.5 -39.5t40.5 -16.5h784q24 0 40 16.5t16 39.5v56q-18 40 -43 71.5t-44.5 48.5t-40.5 29.5t-28.5 15
t-11.5 3.5v0v0z" />
    <glyph glyph-name="eye" unicode="&#xe669;" 
d="M931 282q-4 6 -11.5 15.5t-28.5 35.5t-43.5 50t-55.5 54t-65 53q-94 66 -215 66t-215 -66q-32 -23 -65.5 -53t-55.5 -54t-43 -50t-28.5 -35.5t-11.5 -15.5q-17 -25 0 -49q4 -6 11.5 -16t28.5 -35.5t43 -49.5t55.5 -54t65.5 -53q94 -66 215 -66t215 66q32 23 65 53
t55.5 54t43.5 49.5t28.5 35.5t11.5 16q17 24 0 49zM512 108q-62 0 -105.5 44t-43.5 105.5t43.5 105.5t105.5 44t105.5 -44t43.5 -105.5t-43.5 -105.5t-105.5 -44zM597 257.5q0 -35.5 -25 -60.5t-60 -25t-60 25t-25 60.5t25 60.5t60 25t60 -25t25 -60.5z" />
    <glyph glyph-name="icon" unicode="&#xe620;" 
d="M442 236h-46v-39h29q18 0 17 17v22zM414 126h39v-56h-39v56zM396 295h46v-36h-46v36zM432 454h-40v-45q20 0 40 4v41zM392 590h40v-42h-40v42zM392 522h40v-42h-40v42zM495 126h39v-56h-39v56zM893 672l-380 69l-372 -69l-33 -5v-450q0 -41 21 -81t55 -77.5t77 -71
t88 -60t86.5 -44t73.5 -23.5l9 -2l10 2q31 6 71.5 23.5t84.5 43.5q43 27 85 60.5t75 71t53 77.5t20 81v450zM331 405l20 1v184h-17v27h155v-27h-17v-172q11 2 25 4v-25q-6 -3 -7 -3q-7 -1 -18 -3v-56h-40v48q-35 -6 -101 -9v31zM437 174h-83v146h130v-104q2 -43 -47 -42z
M694 45h-359v25h32v83h294v-83h33v-25zM512 235v87h163v-118q2 -42 -48 -40h-35v22h17q21 -2 19 15v9h-73q-8 -35 -65 -52v23q24 16 22 54zM694 470h-81q6 -65 81 -108v-27q-78 31 -107 80q-31 -50 -104 -80v26q73 45 79 109h-75v27h77v68h-67v27h25q-8 14 -13 38h44
q5 -25 14 -38h41q9 17 12 37h46q-3 -17 -13 -37h30v-27h-72v-68h83v-27zM628 255h-69v-16v-9h69v25zM577 126h39v-56h-39v56zM559 299h69v-24h-69v24z" />
    <glyph glyph-name="star" unicode="&#xe606;" 
d="M957 401q-10 33 -44 38l-237 38l-113 239q-16 32 -51 32t-51 -32l-113 -239l-237 -38q-34 -5 -44 -38q-3 -8 -3 -17q0 -23 16 -40l175 -174l-50 -251q-7 -35 22 -56q15 -11 33 -11q15 0 27 7l225 125l225 -125q12 -7 27 -7q18 0 33 11q29 21 22 56l-50 251l175 174
q16 17 16 40q0 9 -3 17z" />
    <glyph glyph-name="daguimo" unicode="&#xe622;" 
d="M634 664q22 -4 37 -23t16 -48q0 -8 1 -27t1 -39.5t-1 -37t-5 -20.5q-6 -7 -11.5 -6.5t-5.5 -4.5q0 -3 -1.5 -20.5t-8.5 -49.5q-4 -16 -11 -29.5t-15 -23.5q-10 -12 -20 -22q-1 -13 -1 -24v-21q0 -10 1 -16q1 -12 6 -17t20 -9q5 -2 17.5 -6t30.5 -10q18 -7 36 -13
q16 -6 37 -13q17 -6 31 -11.5t21 -8.5q19 -10 25.5 -20.5t11.5 -27.5q2 -9 5 -32q3 -24 7 -49t7 -48q2 -22 3 -28q1 -13 -4.5 -21.5t-24.5 -13.5q-17 -4 -48.5 -8.5t-73.5 -8.5t-92.5 -6.5t-106 -2.5t-106 2t-93.5 6q-42 3 -75 7.5t-51 9.5q-4 1 -10 4t-11.5 7t-8 10.5
t-2.5 14.5q1 7 5.5 30.5t10.5 51t11 51.5t7 30q4 12 11 24.5t25 26.5q9 6 32 14t48.5 15t48 12t29.5 6q15 3 26 7.5t11 12.5v57q-11 8 -21 19q-8 9 -17 21t-16 26q-13 26 -17 48t-5 26t-7.5 6.5t-9.5 10.5q-8 16 -7.5 34.5t2.5 53.5q3 34 11.5 65t36.5 57q15 13 39.5 21.5
t49.5 12.5t48 4t35 -3q13 -4 20.5 -8.5t12 -8.5t7.5 -7.5t6 -5.5q5 -4 12.5 -2.5t27.5 -2.5v0zM544 130l26 -102l43 115l-41 30zM474 175l-39 -32l44 -115l23 103zM821 556q14 -2 22 -13.5t9 -28.5q0 -5 1 -16t1 -23t-1 -22t-3 -12q-3 -4 -6.5 -3.5t-3.5 -3.5q0 -2 -0.5 -12
t-5.5 -30q-2 -10 -6 -17.5t-9 -13.5q-5 -7 -11 -13q-1 -7 -1 -14v-23q1 -7 3.5 -9.5t11.5 -4.5q4 -1 18.5 -6t31.5 -11q18 -7 32 -12q15 -6 21 -8q11 -6 15.5 -12.5t6.5 -17.5q1 -5 3 -18.5t4 -29t4 -28.5t2 -16q1 -8 -2.5 -13.5t-15.5 -7.5l-25 -5q-16 -3 -41 -5
q-2 12 -6 23q-3 10 -7 20.5t-10 18.5q-10 14 -22 23t-23.5 15t-23.5 9t-23 7q-50 18 -80.5 25t-33.5 12q-2 2 -2.5 6t-0.5 9t1 11q13 4 20 5t11 2q8 2 14.5 4.5t6.5 6.5v35l-2 1l-4 1q-2 1 -4 5q6 13 12 31q5 15 10.5 37.5t9.5 53.5q3 25 4 44.5t1 33.5v31q11 2 24.5 2
t20.5 -2q17 -5 20.5 -10t7.5 -8q4 -2 8 -1.5t16 -1.5v0zM771 244l7 -26l18 -6l13 35l-20 17zM721 261l-17 -16l1 -4l30 -9l4 11zM287 578q-15 2 -31 1q-13 -1 -29.5 -5t-29.5 -14q-12 -8 -19 -18.5t-10.5 -22t-4.5 -21t-1 -15.5q0 -13 -1 -23t0.5 -18t2.5 -11t4 -5t5 -2.5
t4 -12.5q1 -13 6.5 -25t11.5 -20q3 -5 7 -9.5t8 -9.5t10 -9v-12v-17q-1 -6 -4.5 -9.5t-13.5 -5.5l-16 -4q-13 -4 -24 -7q-13 -3 -26.5 -7t-20.5 -7q-29 -13 -35 -47q-3 -15 -8 -39q-5 -23 -7 -33t0.5 -20.5t15.5 -13.5q7 -2 17.5 -3t20.5 -3t22 -3q2 12 6 24q3 10 8.5 21
t12.5 21q8 8 19 17l22 16q12 9 26 16l-10 25l21 16l23 -25l12 3q1 0 5 2q2 1 4 1l19 21l16 -13q5 1 9 2t9 2l10 2l17.5 3.5t8.5 9.5q0 4 0.5 6.5t0.5 4.5v3q-9 3 -17 6l-13 4q-7 2 -11 4q-8 2 -9 7.5t-1 14.5v10q0 5 1 9q0 5 1 12q-8 12 -15 26q-7 11 -13.5 26.5t-10.5 31.5
q-5 23 -7 48t-1 46q0 24 3 48v0zM287 578z" />
    <glyph glyph-name="icon19" unicode="&#xe665;" 
d="M903 261h-2v0q0 16 -11 27.5t-27 11.5t-27 -11.5t-11 -27.5v-4q0 -12 6 -21q-41 -102 -132 -164.5t-202 -62.5q-99 0 -182.5 49.5t-132 134t-48.5 184.5t48.5 184.5t132 134t182.5 49.5q129 0 228 -82.5t126 -207.5h60q-27 150 -143.5 249.5t-270.5 99.5
q-114 0 -211 -57.5t-153.5 -156t-56.5 -214.5t56.5 -214t153.5 -155.5t211 -57.5q137 0 246 80t152 207q6 9 6 20q2 4 2 5zM910.5 786q-13.5 0 -23 -10t-9.5 -23v-229h-229q-14 0 -23.5 -10t-9.5 -23.5t9.5 -23t23.5 -9.5h262q13 0 23 9.5t10 23.5v262q0 13 -10 23t-23.5 10
z" />
    <glyph glyph-name="group" unicode="&#xe626;" 
d="M959 285v-60q-5 -9 -13.5 -23t-32.5 -50t-45 -63.5t-46.5 -50t-41.5 -22.5q1 11 2.5 29t1.5 66t-4.5 86.5t-19.5 73.5t-40 43q30 30 60 30q2 -2 6.5 -6t18 -11t27 -9t32 3.5t35.5 22.5v0h3.5t8.5 -1t11.5 -3.5t12.5 -6.5t12 -10.5t8.5 -16t3.5 -21.5zM929 472
q0 -38 -26.5 -68t-63.5 -30t-63 26.5t-26 63.5t26 63t63 26q38 0 64 -22t26 -59zM750 165v-179q-9 -5 -24.5 -12t-66 -21.5t-103.5 -19t-131 7.5t-153 45v179q0 5 1 13t7 28.5t17.5 36.5t36 29t58.5 13q4 -5 13 -12.5t36 -21.5t54 -18.5t64.5 7t70.5 45.5q5 0 13 -1
t28.5 -7.5t36.5 -17.5t29 -35.5t13 -58.5zM511 673q74 0 126.5 -52.5t52.5 -127t-52.5 -127t-126.5 -52.5t-126.5 52.5t-52.5 127t52.5 127t126.5 52.5zM242 344q14 0 28.5 -7.5t23.5 -14.5l8 -8q-25 -8 -40 -43t-19.5 -73.5t-4.5 -86t1.5 -66t2.5 -29.5v0q-16 0 -41.5 22.5
t-46.5 50t-45 63.5t-32.5 50t-13.5 23v0v60q0 26 15 41t30 17l15 1q17 -17 35.5 -23t32.5 -3t26 9t18.5 11.5zM272 472q0 -38 -26.5 -68t-62.5 -30q-37 0 -63.5 26.5t-26.5 63.5t26 63t64 26t63.5 -22t25.5 -59z" />
    <glyph glyph-name="uilist" unicode="&#xe607;" horiz-adv-x="1025" 
d="M944 221h-569q-33 0 -56 23t-23 56t23 56t56 23h569q33 0 56.5 -23t23.5 -56t-23.5 -56t-56.5 -23zM944 538h-569q-33 0 -56 23.5t-23 56.5t23 56t56 23h569q33 0 56.5 -23t23.5 -56t-23.5 -56.5t-56.5 -23.5zM166 -49l12 -61q1 -1 1 -2q0 -3 -1.5 -4.5t-4 -1.5t-5.5 1
l-59 28l-58 -29q-2 -2 -5 -2t-4 2t-1 4v3l10 60l-48 43q-3 3 -3 5q0 5 7 6l65 10l29 55q2 5 6 5t7 -5l30 -55l65 -8q7 -1 7 -5v0q0 -3 -3 -6zM166 280l12 -61q1 -1 1 -2q0 -3 -1.5 -4.5t-4 -1.5t-5.5 1l-59 28l-58 -29q-2 -2 -5 -2t-4 2t-1 4v3l10 60l-48 43q-3 3 -3 5
q0 5 7 6l65 10l29 55q2 5 6 5t7 -5l30 -55l65 -8q7 -1 7 -5v0q0 -3 -3 -6zM166 597l12 -60q1 -1 1 -2q0 -3 -1.5 -5t-4 -2t-5.5 2l-59 28l-58 -30q-2 -1 -5 -1t-4 1.5t-1 4.5v2l10 61l-48 42q-3 4 -3 6q0 5 7 6l65 9l29 56q2 5 6 5t7 -5l30 -55l65 -8q7 -1 7 -5v0
q0 -3 -3 -6zM375 50h569q33 0 56.5 -23t23.5 -56t-23.5 -56t-56.5 -23h-569q-33 0 -56 23t-23 56t23 56t56 23z" />
    <glyph glyph-name="lajitong" unicode="&#xe62f;" 
d="M742 7q0 -24 -17.5 -41t-40.5 -17h-345q-24 0 -41 17t-17 41v409q0 24 17 41t41 17h345q23 0 40.5 -17t17.5 -41v-409zM415 327q0 24 -9.5 41t-23 17t-23 -17t-9.5 -41v-231q0 -24 9.5 -41t23 -17t23 17t9.5 41v231zM544 327q0 24 -9.5 41t-23 17t-23 -17t-9.5 -41v-231
q0 -24 9.5 -41t23 -17t23 17t9.5 41v231zM673 327q0 24 -9.5 41t-23 17t-23 -17t-9.5 -41v-231q0 -24 9.5 -41t23 -17t23 17t9.5 41v231zM797 493q-2 -14 -20.5 -22t-42.5 -4l-455 67q-24 4 -39 16.5t-13 26.5t20 21.5t42 4.5l455 -67q24 -4 39.5 -16.5t13.5 -26.5zM457 569
q20 57 73 49q45 -7 49 -67l41 -7q0 38 -25 67.5t-63 35.5t-70.5 -15t-43.5 -57z" />
    <glyph glyph-name="camera1" unicode="&#xe650;" 
d="M512 412q60 0 102 -42t42 -102t-42 -102t-102 -42t-102 42t-42 102t42 102t102 42zM864 620q53 0 90.5 -37.5t37.5 -90.5v-448q0 -53 -37.5 -90.5t-90.5 -37.5h-704q-53 0 -90.5 37.5t-37.5 90.5v448q0 53 37.5 90.5t90.5 37.5h112l26 68q9 24 34.5 42t51.5 18h256
q26 0 51.5 -18t34.5 -42l26 -68h112zM512 44q92 0 158 66t66 158t-66 158t-158 66t-158 -66t-66 -158t66 -158t158 -66z" />
    <glyph glyph-name="icon1" unicode="&#xe805;" 
d="M810 286q0 -12 -8 -20t-20 -8q-11 0 -19 8v0l-250 250v0l-1 1v0l-251 -251v0q-8 -8 -19.5 -8t-19.5 8t-8 20t8 20l270 270q8 8 20 8v0v0v0h1h1h1v0q10 -1 17 -9v0l110 -110v26q0 12 8.5 20t20 8t19.5 -8t8 -20v-82l105 -104v0q7 -8 7 -19zM754 239v-83v-38v-74
q0 -12 -8 -20t-20 -8h-56v223h-111v-223h-261q-12 0 -20 8t-8 20v74v38v83l242 243zM465 239h-111v-111h111v111zM512 -160q-94 0 -179 36q-83 35 -146.5 98.5t-98.5 146.5q-36 85 -36 179t36 179q35 83 98.5 146.5t146.5 98.5q85 36 179 36t179 -36q83 -35 146.5 -98.5
t98.5 -146.5q36 -85 36 -179t-36 -179q-35 -83 -98.5 -146.5t-146.5 -98.5q-85 -36 -179 -36zM512 730q-87 0 -167 -34q-77 -33 -136.5 -92.5t-92.5 -136.5q-34 -80 -34 -167t34 -167q33 -77 92.5 -136.5t136.5 -92.5q80 -34 167 -34t167 34q77 33 136.5 92.5t92.5 136.5
q34 80 34 167t-34 167q-33 77 -92.5 136.5t-136.5 92.5q-80 34 -167 34z" />
    <glyph glyph-name="user" unicode="&#xe639;" 
d="M511 693h14q42 -2 80 -22.5t62 -54.5q32 -44 33 -107q20 -8 33 -26t12 -39q0 -20 -13 -37t-32 -25q1 -48 -24 -91.5t-67 -67.5v-33q117 -21 181 -79q41 -37 46 -85v-8q-46 -81 -156 -118q-59 -21 -146 -26h-38q-92 2 -173 37.5t-123 106.5v7q4 48 46 86q64 58 181 79v33
q-42 24 -67 67.5t-24 91.5q-19 8 -32 25t-13 37q-1 21 12 39t33 26q1 63 33 107q24 34 62 54.5t80 22.5z" />
    <glyph glyph-name="deji" unicode="&#xe623;" 
d="M393 79q-19 0 -32 -13.5t-13 -32.5t13 -32t32 -13t32.5 13t13.5 32t-13.5 32.5t-32.5 13.5zM803 308q38 0 64.5 27t26.5 65v135q0 15 -10.5 25.5t-25.5 10.5h-456q-15 0 -25.5 -10.5t-10.5 -26t10.5 -26t25.5 -10.5h310h110v-9v-73q0 -15 -11 -25.5t-26 -10.5l-68 -8v0
l-325 -39q-8 -1 -9 -1q-5 -1 -10 -3q-4 -2 -11 -5l-88 327q-3 12 -13 20.5t-23 8.5h-73q-15 0 -26 -10.5t-11 -25.5t11 -26t26 -11h45l103 -380q5 -32 30.5 -53.5t58.5 -21.5h456q15 0 25.5 10.5t10.5 25.5t-10.5 26t-25.5 11h-328h-38h-90q-10 0 -16 10l-2 8v0q0 8 5.5 13
t12.5 5l87 10v0l314 38v-0.5v-0.5zM812 79q-18 0 -31.5 -13.5t-13.5 -32.5t13.5 -32t32 -13t32 13t13.5 32t-13.5 32.5t-32.5 13.5v0z" />
    <glyph glyph-name="search" unicode="&#xe699;" horiz-adv-x="1026" 
d="M989 -61q33 -38 36 -66t-22 -55q-28 -32 -62 -30t-65 28l-197 189q-53 -34 -113 -52.5t-127 -18.5q-91 0 -170.5 34.5t-139.5 94t-94.5 139.5t-34.5 171t34.5 170.5t94.5 139.5t139.5 94.5t170.5 34.5t171 -34.5t139.5 -94.5t94 -139.5t34.5 -170.5q0 -69 -20 -131
t-56 -115l39 -39q28 -28 59 -58q31 -31 56.5 -57.5t32.5 -33.5v0zM444 80q61 0 114.5 23t93.5 63t63 93.5t23 114.5t-23 115t-63 93.5t-93.5 62.5t-114.5 23t-115 -23t-93.5 -62.5t-62.5 -93.5t-23 -115t23 -114.5t62.5 -93.5t93.5 -63t115 -23v0zM444 80z" />
    <glyph glyph-name="home" unicode="&#xe60e;" 
d="M925 379l-333 352q-32 34 -78 34t-78 -34l-334 -352q-16 -17 -22.5 -34.5t-6 -28t4.5 -18.5q15 -35 57 -35h49v-271q0 -48 30 -84t75 -36h142v287v12.5v11t1 8t2.5 7.5t4.5 5t7.5 3.5t11.5 0.5h112q6 0 11 -0.5t7.5 -3.5t4.5 -5t2.5 -7.5t0.5 -8v-11v-12.5v-287h142
q45 0 75.5 36t30.5 84v271h48q42 0 58 35q3 8 3.5 18.5t-6 28t-22.5 34.5z" />
    <glyph glyph-name="add1" unicode="&#xe667;" 
d="M852.5 633.5q-92.5 92.5 -216 125t-247.5 -0.5t-216 -125t-125 -216t0 -247.5t125.5 -216t216.5 -125t247.5 0t215.5 125t125 216.5t0 247.5t-125.5 216zM747 246h-197v-197q0 -16 -10.5 -27t-26 -11t-26.5 11t-11 26v198h-197q-15 0 -26 10.5t-11 26t11 26.5t26 11h197
v197q0 15 11 26t26.5 11t26 -11t10.5 -26v-197h197q16 0 26.5 -10.5t10.5 -26t-10.5 -26.5t-26.5 -11z" />
    <glyph glyph-name="icon3" unicode="&#xe628;" 
d="M748 330l-209 1v208q0 86 61 147.5t148 61.5t148 -61.5t61 -148t-61 -147.5t-148 -61zM273.5 -145q-86.5 0 -148 61t-61.5 147.5t61.5 148t147.5 61.5q28 0 80 -0.5t91.5 -1t37.5 -0.5v-207q0 -87 -61 -148t-147.5 -61zM64 538.5q0 86.5 61.5 148t148 61.5t147.5 -61.5
t61 -147.5v-208q-146 -1 -209 -1q-86 0 -147.5 61t-61.5 147.5zM957 63.5q0 -86.5 -61 -147.5t-148 -61t-148 61t-61 148v207q146 2 209 2q87 0 148 -61.5t61 -148zM595 63v-2q1 -58 48.5 -101t107.5 -43t102.5 42.5t42.5 101.5q0 61 -43 108t-102 47h-155q0 -123 -1 -155
v0.5v1.5z" />
    <glyph glyph-name="help2" unicode="&#xe62c;" 
d="M512 883q-104 0 -198.5 -40.5t-163 -109t-109 -163t-40.5 -198.5t40.5 -199t109 -163.5t163 -109t198.5 -40.5t199 40.5t163.5 109t109 163.5t40.5 199t-40.5 198.5t-109 163t-163.5 109t-199 40.5zM569 31h-114v113h114v-113zM699 402q-17 -26 -43 -52.5t-43 -42
t-30 -43t-13 -63.5h-115v34q-3 96 87 158q25 18 33 24t21.5 19t17 21.5t7 22.5t3.5 33q0 32 -19.5 52.5t-43 27.5t-50.5 7q-54 0 -83 -34.5t-29 -80.5h-114q0 59 21.5 104t58 71.5t80.5 39t94 12.5q87 0 144 -53.5t57 -120.5q0 -76 -41 -136z" />
    <glyph glyph-name="member" unicode="&#xe614;" 
d="M511 812q85 0 147 -66.5t62 -159t-62 -159t-147.5 -66.5t-147.5 66.5t-62 159t62 159t148 66.5v0v0v0zM885 -135q-362 -153 -743 0q-2 166 63.5 276.5t171.5 154.5l137 -243l143 236q102 -47 165 -155t63 -269v0v0z" />
    <glyph glyph-name="xuanzhong" unicode="&#xe635;" 
d="M511 747q-91 0 -173.5 -35t-142.5 -95t-95.5 -143t-35.5 -173.5t35.5 -173.5t95.5 -143t142.5 -95t173.5 -35t173.5 35t142.5 95t95.5 143t35.5 173.5t-35.5 173.5t-95.5 143t-142.5 95t-173.5 35v0zM437 28l-251 257l56 56l195 -194l348 352l58 -57l-406 -414v0zM437 28
z" />
    <glyph glyph-name="jinggao-copy" unicode="&#xe631;" 
d="M951 80l-393 628q-16 25 -47 25t-47 -25l-393 -628q-17 -27 0 -53q16 -25 47 -25h786q31 0 47 25q17 26 0 53v0zM561 102q0 -9 -5 -15.5t-13 -6.5h-62q-8 0 -13.5 6.5t-5.5 15.5v37q0 10 5.5 16.5t13.5 6.5h62q8 0 13 -6.5t5 -16.5v-37zM556 225q-5 -5 -13 -5l-62 1
q-8 0 -13 4t-5 11l-1 105v166q0 6 5.5 10.5t12.5 4.5h63q8 0 13 -4.5t5 -10.5v-165v-107q0 -6 -5 -10v0zM556 225z" />
    <glyph glyph-name="lianjie" unicode="&#xe70f;" 
d="M557 196q-98 0 -165 67q-19 19 -19 45.5t18.5 45.5t45 19t45.5 -19q33 -33 82.5 -30t86.5 41l198 197q41 41 41 94q0 44 -31 75q-33 33 -80 31q-50 -3 -89 -41l-113 -114q-21 22 -81 29.5t-84 -12.5l188 187q73 74 173 79q104 4 177 -68q68 -69 68 -166
q0 -50 -20.5 -98.5t-58.5 -85.5l-198 -198q-77 -78 -184 -78zM282 494l-197 -198q-38 -37 -58.5 -85.5t-20.5 -98.5q0 -97 68 -166q73 -73 177 -68q100 5 173 79l188 187q-24 -20 -84 -12.5t-81 29.5l-113 -113q-39 -39 -89 -42q-47 -2 -80 31q-31 31 -31 75q0 53 41 94
l198 197q37 38 86.5 41t82.5 -30q19 -19 45.5 -19t45 19t18.5 45.5t-19 45.5q-67 67 -165 67q-107 0 -185 -78z" />
    <glyph glyph-name="member1" unicode="&#xe615;" horiz-adv-x="1061" 
d="M530.5 384q39.5 0 67.5 34.5t28 78.5v18q0 43 -27.5 71t-68.5 28t-68.5 -28t-27.5 -71v-18q0 -44 28.5 -78.5t68 -34.5zM338 365q16 0 37 17t21 44v31q0 29 -17.5 45.5t-40.5 16.5q-22 0 -39.5 -16.5t-17.5 -45.5v-31q0 -27 21 -44t36 -17zM683 288v0.5v0.5q-1 6 -2 11v0
q-3 11 -11 21v0q-14 20 -41 35q-16 9 -22 9q-11 0 -35 -23v0l-15 -13l-1 -1.5t-3 -4t-5 -5.5t-6 -5.5t-6 -4t-6 -1.5q-2 0 -5 1.5t-5.5 3t-5 4t-4.5 5t-3.5 4.5t-2.5 3l-1 1l-14 13v0q-25 23 -36 23q-8 0 -22 -9q-29 -19 -41 -35v0v0q-7 -10 -10 -21v0q-2 -5 -3 -11v-0.5
v-0.5v-12v-84q0 -21 8.5 -29.5t29.5 -8.5h230q22 0 30.5 8.5t8.5 29.5v84q0 6 -1 12zM722 365q16 0 37 17t21 44v31q0 29 -17.5 45.5t-40.5 16.5q-22 0 -39.5 -16.5t-17.5 -45.5v-31q0 -27 21 -44t36 -17zM267 323q-44 -24 -44 -73v-39q0 -21 8.5 -29.5t30.5 -8.5h76v115
l-19 19q-32 28 -52 16zM338 288v0v0zM837 250q0 49 -43 73q-21 12 -53 -16l-19 -19v-115h77q21 0 29.5 8.5t8.5 29.5v39zM722 288v0v0z" />
    <glyph glyph-name="anonymous-iconfont" unicode="&#xe62e;" 
d="M512 769q-104 0 -191.5 -51.5t-139 -140t-51.5 -192.5t51.5 -192.5t139 -140t191.5 -51.5t191.5 51.5t139 140t51.5 192.5t-51.5 192.5t-139 140t-191.5 51.5zM703 374q0 -12 -8.5 -21t-21.5 -9h-322q-13 0 -21.5 9t-8.5 21v29q0 13 8.5 21.5t21.5 8.5h322
q13 0 21.5 -8.5t8.5 -21.5v-29z" />
    <glyph glyph-name="5" unicode="&#xe613;" 
d="M512 896q-138 0 -256 -69t-187 -187t-69 -256t69 -256t187 -187t256 -69t256 69t187 187t69 256t-69 256t-187 187t-256 69zM102 384q0 111 55 205.5t149.5 149.5t205.5 55q140 0 251 -87l-574 -574q-87 111 -87 251zM512 -26q-140 0 -251 87l574 574q87 -111 87 -251
q0 -111 -55 -205.5t-149.5 -149.5t-205.5 -55z" />
    <glyph glyph-name="yuyin" unicode="&#xe61a;" 
d="M534 2v-66h32q13 0 22.5 -9t9.5 -22.5t-9.5 -22.5t-22.5 -9h-32h-64h-32q-13 0 -22.5 9t-9.5 22.5t9.5 22.5t22.5 9h32v66q-118 10 -208 90.5t-111 194.5h64q21 -96 103 -159.5t184 -63.5t183.5 63.5t103.5 159.5h64q-21 -114 -111 -194.5t-208 -90.5v0zM502 128
q-93 0 -158.5 65.5t-65.5 157.5v319q0 93 65.5 158.5t158 65.5t158 -65.5t65.5 -158.5v-319q0 -92 -65.5 -157.5t-157.5 -65.5v0z" />
    <glyph glyph-name="iconfontmingpian" unicode="&#xe629;" 
d="M931 768h-838q-38 0 -65 -27t-27 -65v-584q0 -38 27 -64.5t65 -26.5h33q5 -1 10 -1t10 1q2 -1 5 -1t6 1l367 -1h5h12h5h2q4 0 10 1h373q38 0 65 26.5t27 64.5v584q0 38 -27 65t-65 27zM556 65h-15l-1 -1h-1l-392 1h-1h-1v0h-17q-8 0 -14 1q5 65 54 119q65 71 174 71
q110 0 176 -71q49 -54 54 -118q-7 -2 -16 -2zM959 92q0 -11 -8 -19t-20 -8h-294q-2 38 -18 79q-19 47 -54 84q-85 92 -222.5 92t-221.5 -92q-37 -40 -56 -91v539q0 12 8 20t20 8h838q12 0 20 -8t8 -20v-584zM344.5 640q-62.5 0 -107 -44.5t-44.5 -107.5t44.5 -107.5
t107 -44.5t107 44.5t44.5 107.5t-44.5 107.5t-107 44.5zM344.5 400q-36.5 0 -62 26t-25.5 62t25.5 62t62 26t62 -26t25.5 -62t-25.5 -62t-62 -26zM577 641h318v-64h-318v64zM577 513h318v-64h-318v64zM577 385h193v-64h-193v64z" />
    <glyph glyph-name="pinglun" unicode="&#xe625;" 
d="M803 102h-116l1 -1q-239 0 -453 -91l-36 -16v80v27v2v1q-58 7 -97 51t-39 103v359q0 65 45.5 110.5t109.5 45.5h585q65 0 110.5 -45.5t45.5 -110.5v-359q0 -65 -45.5 -110.5t-110.5 -45.5zM323 484q-24 0 -41 -16.5t-17 -40t17 -40.5t41 -17t41.5 17t17.5 40.5t-17.5 40
t-41.5 16.5zM525.5 484q-23.5 0 -40.5 -16.5t-17 -40t17 -40.5t40.5 -17t40.5 17t17 40.5t-17 40t-40.5 16.5zM727.5 484q-24.5 0 -41.5 -16.5t-17 -40t17 -40.5t41.5 -17t41.5 17t17 40.5t-17 40t-41.5 16.5z" />
    <glyph glyph-name="shenhe" unicode="&#xe61b;" 
d="M548 313h180v-85h-180v85zM548 442h180v-79h-180v79zM309 313h170v-85h-170v85zM309 442h170v-74h-170v74zM513.5 892q-103.5 0 -198 -40.5t-162.5 -108.5t-108.5 -162.5t-40.5 -198t40.5 -198t108.5 -162.5t162.5 -108.5t198 -40.5t198 40.5t162.5 108.5t108.5 162.5
t40.5 198t-40.5 198t-108.5 162.5t-162.5 108.5t-198 40.5zM798 143h-70v35h-180v-175h-69v175h-170v-50h-70v369h240v90l79 -10l-10 -25v-55h250v-354zM863 528h-70v85h-554v-76h-75v135h325l-8 24q-11 27 -27 51l69 14q10 -16 15 -27q16 -34 25 -62h300v-144z" />
    <glyph glyph-name="yaoqing" unicode="&#xe642;" 
d="M957 120l-208 173q-2 1 -4.5 0.5t-2.5 -2.5v-116h-155q-20 0 -27 -20q-1 -2 -1 -4v-72q0 -2 1 -4q7 -20 27 -20h155v-116q0 -2 2.5 -3t4.5 1l208 173q3 2 3 5t-3 5v0zM676 313q-31 19 -62 32q51 36 80.5 94t29.5 125q0 111 -75.5 189.5t-181.5 78.5t-181 -78.5
t-75 -187.5q0 -68 29.5 -125.5t80.5 -93.5q-114 -47 -185 -153.5t-71 -237.5h72q0 131 84 228.5t207 112.5l5.5 0.5t14 1t18.5 0.5t22 -0.5t23 -1.5h3q43 -6 83 -24q35 25 79 40v0zM467 365q-80 0 -136.5 58.5t-56.5 142t56.5 142t136.5 58.5t136.5 -58.5t56.5 -142
t-56.5 -142t-136.5 -58.5v0zM467 365z" />
    <glyph glyph-name="guanli" unicode="&#xe7ca;" 
d="M838 164.5q-1 1.5 -3 1.5l-26 4q-2 6 -6 13q3 4 8 10t7 9q1 2 1 3q0 2 -1 3q-5 7 -23 24q-2 1 -4 1t-3 -1l-20 -15q-6 3 -13 5l-4 25q0 3 -2 4t-3 1h-32q-4 0 -5 -4q-2 -7 -4 -26q-7 -2 -13 -5l-20 15q-2 1 -4 1q-3 0 -13 -10t-14 -15q-1 -1 -1 -3q0 -1 1 -3
q10 -11 15 -19q-3 -6 -5 -13l-27 -4q-2 0 -3 -1q-1 -2 -1 -3v-31q0 -1 1 -3t3 -2l26 -4q2 -6 6 -13q-2 -4 -7 -10t-8 -9q-1 -2 -1 -3.5t1 -2.5q6 -8 24 -24q1 -1 3.5 -1t3.5 1l20 15q6 -3 13 -5l4 -25q0 -2 1.5 -3.5t3.5 -1.5h32q4 0 5 4q2 7 4 26q7 2 13 5l19 -15
q2 -1 4 -1q3 0 13.5 9.5t14.5 15.5q1 1 1 3t-1 3q-11 12 -16 19q3 5 6 13l26 4q2 0 3 1.5t1 2.5v31q0 2 -1 3.5zM755.5 121q-10.5 -10 -25.5 -10t-26 10t-11 25t11 25t26 10t25.5 -10t10.5 -25t-10.5 -25zM294 611q0 71 51.5 121t124 50t124 -50t51.5 -121t-51.5 -121
t-124 -50t-124 50t-51.5 121zM672 339q-30 26 -66 44q-62 -36 -136.5 -36t-136.5 36q-71 -35 -113.5 -98.5t-42.5 -139.5v-34q1 -3 4.5 -7.5t23 -17t48 -21.5t86 -17t130.5 -8q55 0 101 4q-27 48 -27 102q0 64 35.5 116t93.5 77z" />
    <glyph glyph-name="why" unicode="&#xe60a;" 
d="M512 828q-90 0 -172.5 -35t-142 -94.5t-94.5 -142t-35 -172.5t35 -172.5t94.5 -142t142 -94.5t172.5 -35t172.5 35t142 94.5t94.5 142t35 172.5t-35 172.5t-94.5 142t-142 94.5t-172.5 35zM341 249q-14 1 -56 0q-21 0 -21 19v122.5v134.5q0 18 18 17h2q58 3 67.5 -5.5
t9.5 -66.5v-77v-124q0 -12 -4.5 -16.5t-15.5 -3.5zM672 143q-2 -2 -6.5 -1t-6 2t-5.5 4t-6 4q-95 59 -112 71q-43 29 -93 27q-32 -2 -35 1t-3 35v116.5v116.5q0 14 5 19.5t19 3.5q81 -14 155 51q9 8 20 16t26.5 18.5t21.5 14.5q1 0 4.5 3t5 3.5t5 1.5t5.5 -1q8 -4 8 -21
v-233v-226v-6.5v-8t-2 -6t-6 -5.5zM737 255q-14 -1 -25.5 7.5t-11.5 20.5q0 29 29 34q21 3 26 5q26 8 40.5 30t13.5 50q-2 27 -20.5 46.5t-46.5 25.5q-25 4 -34.5 13t-6.5 24q6 34 55 24q52 -11 84 -49.5t32 -90.5q-1 -57 -40 -97.5t-95 -42.5z" />
    <glyph glyph-name="shijian" unicode="&#xe851;" 
d="M685 287l-124 89v190q0 24 -17 40.5t-40.5 16.5t-40 -16.5t-16.5 -40.5v-248l172 -124q15 -10 33 -10q29 0 46 24q14 19 10 42t-23 37zM512 833q-91 0 -174 -35.5t-143.5 -96t-96 -143.5t-35.5 -174t35.5 -174t96 -143.5t143.5 -96t174 -35.5t174 35.5t143.5 96t96 143.5
t35.5 174t-35.5 174t-96 143.5t-143.5 96t-174 35.5zM512 49q-91 0 -168 45t-122 122t-45 168t45 168t122 122t168 45t168 -45t122 -122t45 -168t-45 -168t-122 -122t-168 -45z" />
    <glyph glyph-name="guanjianci1" unicode="&#xe60c;" 
d="M860.5 761.5q-85.5 86.5 -194 98.5t-176.5 -57q-59 -61 -58 -152.5t60 -175.5l-418 -422q-12 -12 -12 -28.5t12 -28.5l28 -28q11 -12 27.5 -12t28.5 12l43 44l109 -110l82 84l-62 63l62 63l63 -63l82 84l-108 110l146 147q83 -60 174.5 -62t152.5 58q68 70 56 179.5
t-97.5 196zM825.5 518.5q-34.5 -34.5 -88.5 -28t-96.5 49.5t-49 97.5t28 89t88.5 28.5t97 -49t49 -98t-28.5 -89.5z" />
    <glyph glyph-name="sanjiaoxing-xia" unicode="&#xe603;" 
d="M941 541l-346 -490q-28 -39 -83.5 -39t-83.5 39l-348 490q-13 19 -15.5 43t5.5 45t28 35t46 14h734q27 0 46.5 -14t27 -35t5.5 -45t-16 -43z" />
    <glyph glyph-name="naozhong" unicode="&#xe619;" 
d="M908 574q24 41 24 89q0 75 -53 128t-127 53q-43 0 -80 -18.5t-62 -51.5q91 -19 168.5 -71.5t129.5 -128.5v0v0zM415 774q-26 33 -63 51.5t-80 18.5q-74 0 -127 -53t-53 -128q0 -48 24 -89q52 76 129.5 128.5t169.5 71.5v0zM512 718q-108 0 -200 -53t-145.5 -145
t-53.5 -200.5t53.5 -200t145.5 -145t200 -53.5t200 53.5t145.5 145t53.5 200t-53.5 200.5t-145.5 145t-200 53zM701 271h-226v300h58v-237h168v-63zM533 334z" />
    <glyph glyph-name="icon-question" unicode="&#xe605;" 
d="M512 767q-99 0 -183.5 -49t-133.5 -133t-49 -183.5t49 -183.5t133.5 -133t183.5 -49t183.5 49t133 133t48.5 183.5t-48.5 183.5t-133 133t-183.5 49v0zM533 187h-64v64h64v-64zM610 443q-10 -18 -40 -47q-31 -29 -37 -42q-6 -12 -6 -42l6 -18h-64l-1 18q1 33 10.5 56
t40.5 55q28 30 35 41q6 10 6 26q0 24 -15 38t-42 14q-28 0 -40.5 -18.5t-15.5 -57.5v0h-64v7q1 33 9 53q8 21 26 38q18 16 41 24q22 8 45 8q51 0 83 -30q33 -30 33 -79q0 -26 -10 -44v0zM610 443z" />
    <glyph glyph-name="shenhe1" unicode="&#xe61c;" 
d="M858 2h-333q-16 0 -27.5 11.5t-11.5 27.5v59q0 16 11.5 27.5t27.5 11.5h333q16 0 27 -11.5t11 -27.5v-59q0 -16 -11 -27.5t-27 -11.5v0zM849 87h-316v-42h316v42v0zM772 139l-68 132q-2 0 -6.5 -2t-6.5 -2h-8l-69 -133h-55l85 150q-21 21 -21 51q0 29 19.5 48.5
t48.5 19.5t49 -19.5t20 -48.5q0 -30 -22 -51l86 -150l-52 5v0zM691 378q-16 0 -27 -11.5t-11 -27.5q0 -27 21 -34h4q3 0 7 -2t6 -2q16 0 27.5 11t11.5 27q0 14 -12 26.5t-27 12.5v0zM533 156q-25 0 -46.5 -11t-21.5 -36v-64h-243q-38 0 -66 27.5t-28 66.5v533q0 38 28 66
t66 28h444q38 0 66 -28t28 -66v-235q0 -7 -6 -13.5t-12 -3.5l-42 13q-3 1 -8 1t-19 -1.5t-25.5 -6.5t-23.5 -18.5t-18 -34.5q-2 -7 -4 -19t0.5 -37.5t16.5 -37.5q-16 -19 -37 -50t-35 -52zM568 634h-282q-10 0 -15.5 -6t-5.5 -15.5t5.5 -15.5t15.5 -6h282q9 0 15 6t6 15
q0 7 -6.5 14.5t-14.5 7.5v0zM568 493h-282q-10 0 -15.5 -6t-5.5 -15.5t5.5 -15.5t15.5 -6h282q9 0 15 6t6 15.5t-6 15.5t-15 6v0z" />
    <glyph glyph-name="qunzhu" unicode="&#xe608;" 
d="M760 -31q-120 0 -132 -1q-21 -1 -31 5.5t-14 26.5q-2 8 -23 69q-1 3 -4 13t-5 14t-6 11t-10 11.5t-14 7.5q-6 2 -9.5 18.5t-0.5 25.5q3 7 16.5 13.5t22.5 3.5q9 -2 18 -13t10 -20q4 -25 17 -40.5t42 -25.5q47 -16 73 25q17 26 30 60q5 13 -5 27q-24 35 2 53q9 6 24.5 6
t24.5 -5q29 -18 3 -53q-6 -9 -5 -31q0 -4 9 -23q26 -55 63 -62t82 34q7 8 5 24q-5 37 26 45q36 10 46 -23q10 -28 -22 -47q-16 -10 -21 -24q-20 -52 -32 -96q-5 -17 -14 -24t-27 -6q-13 1 -139 1v0zM474 101q0 73 61 121q4 58 0 59q1 15 14 29t16 22q2 8 3 30t7 31
q3 7 14.5 13t14.5 10q9 13 14 38q8 48 -3 72q-2 4 -4.5 7.5t-3.5 6t-2 6t-2 8.5q0 8 1 30.5t3 45t2 26.5q1 23 -0.5 32.5t-7.5 34.5v0q-16 29 -31 38l-30 5l-19 17q-26 16 -55.5 21.5t-58.5 0.5t-46.5 -10.5t-40.5 -14.5q-49 -17 -71 -74t-3 -150q3 -12 -4 -26t-7 -18
q0 -1 1.5 -18.5t2.5 -26.5t4 -23.5t8 -23.5t12 -13q1 -1 6 -2.5t9.5 -2.5t4.5 0q2 -15 4.5 -43t3.5 -34q2 -7 14.5 -18.5t15.5 -25.5q6 -120 -10 -131q-1 0 -3 -1q-16 -4 -31.5 -8.5t-52.5 -16t-67 -25t-61 -30t-49 -37t-18 -41.5h365v0h66v0h62q-48 46 -48 110zM781 -9h45
q-4 19 -17 36q-11 -20 -28 -36z" />
    <glyph glyph-name="tianjiatixing" unicode="&#xe61d;" 
d="M426 -32q47 0 79.5 32.5t32.5 79.5h-223q0 -47 32.5 -79.5t78.5 -32.5zM469 136v7v37q0 42 30 72t72 30h53v44q0 28 14.5 52.5t39.5 37.5v55q0 93 -47.5 158.5t-130.5 92.5q1 6 1 12q0 30 -22 51t-53 21t-52.5 -21t-21.5 -51q0 -6 1 -12q-80 -27 -129 -93t-49 -158v-140
q0 -5 -1 -13t-4.5 -29t-8.5 -37t-13.5 -29.5t-18.5 -14.5q-16 0 -27 -10.5t-11 -25.5t11 -25.5t26 -10.5h298h43v0zM901 200h-117v117q0 16 -11 27t-26.5 11t-27 -11t-11.5 -27v-117h-117q-15 0 -26.5 -11t-11.5 -26.5t11.5 -26.5t26.5 -11h117v-117q0 -16 11.5 -27t27 -11
t26.5 11t11 27v117h117q16 0 27 11t11 26.5t-11 26.5t-27 11z" />
    <glyph glyph-name="new" unicode="&#xe612;" 
d="M282 341l35 59h109h56h105h96h68l-1 -5l4 5h67q-8 74 -39.5 129.5t-66.5 78.5q3 -22 5.5 -51.5t0 -81t-19.5 -63.5q-7 -6 -11 7.5t-8 43t-10.5 68.5t-22.5 86.5t-39.5 94t-66 94.5t-97.5 85q-6 -99 -22 -165.5t-42 -106.5t-52 -66.5t-65 -67t-68 -85.5h76zM799 83h-147
l4 14l-12 -14h-145h-4h-202h-56h-69l-10 64l-14 -24q22 -103 117 -170.5t220 -67.5q46 0 93 11l15 -1h0.5h0.5h-1v0v0q82 17 141 66q73 59 105 162zM269 127h-55l-22 142q-2 11 -1 17h-1q-5 -11 -19 -34l-75 -125h-50l130 219h58l21 -138q2 -13 2 -17h1q3 8 16 30l74 125h51
zM475 127h-148l130 219h143l-23 -38h-89l-31 -52h83l-22 -38h-83l-32 -53h95zM978 346l-197 -219h-59l42 143q3 11 10 24v0q-11 -15 -19 -24l-129 -143h-62l64 219h58l-51 -148q-3 -10 -11 -25h1q8 12 20 25l135 148h57l-47 -149q-3 -9 -10 -23h1q8 12 18 23l125 149h54z
M269 127h-55l-22 142q-2 11 -1 17h-1q-5 -11 -19 -34l-75 -125h-50l130 219h58l21 -138q2 -13 2 -17h1q3 8 16 30l74 125h51zM475 127h-148l130 219h143l-23 -38h-89l-31 -52h83l-22 -38h-83l-32 -53h95zM978 346l-197 -219h-59l42 143q3 11 10 24v0q-11 -15 -19 -24
l-129 -143h-62l64 219h58l-51 -148q-3 -10 -11 -25h1q8 12 20 25l135 148h57l-47 -149q-3 -9 -10 -23h1q8 12 18 23l125 149h54z" />
    <glyph glyph-name="sanjiaoxing-copy-copy" unicode="&#xe610;" 
d="M832 256h-640l320 384z" />
    <glyph glyph-name="sanjiaoxing-copy-copy1" unicode="&#xe61e;" 
d="M832 256h-640l320 384z" />
    <glyph glyph-name="tongji" unicode="&#xe61f;" 
d="M101 342q0 -102 50 -188.5t135.5 -136.5t187 -50t187 50t135.5 136.5t50 188.5h-373v375q-101 0 -186.5 -50t-135.5 -136.5t-50 -188.5zM920 417q0 102 -49.5 188.5t-135.5 136.5t-187 50v-375h372z" />
    <glyph glyph-name="gonggao" unicode="&#xe618;" 
d="M992 576h-223l-175 175q14 22 14 49q0 40 -28 68t-68 28t-68 -28t-28 -68q0 -27 14 -50l-174 -174h-224q-13 0 -22.5 -9.5t-9.5 -22.5v0v-640q0 -13 9.5 -22.5t22.5 -9.5h960q13 0 22.5 9.5t9.5 22.5v0v640v0q0 13 -9.5 22.5t-22.5 9.5zM480 709q16 -5 32 -5q17 0 33 6
l134 -134h-332zM128 384h320v-64h-320v64zM640 64h-512v64h512v-64zM832 192h-704v64h704v-64z" />
    <glyph glyph-name="lianmeng" unicode="&#xe60f;" horiz-adv-x="1047" 
d="M392.5 13q-26.5 0 -44.5 19l-313 312q-19 19 -19 45.5t19 45.5l313 312q18 19 44.5 19t45.5 -19l312 -312q19 -19 19 -45.5t-19 -45.5l-312 -312q-19 -19 -45.5 -19zM135 390l258 -258l257 258l-257 257zM620.5 13q-26.5 0 -45.5 19l-312 312q-19 19 -19 45.5t19 45.5
l36 -37l-36 37l312 312q19 19 45.5 19t44.5 -19l313 -312q19 -19 19 -45.5t-19 -45.5l-313 -312q-18 -19 -44.5 -19zM363 390l257 -258l258 258l-258 257z" />
    <glyph glyph-name="guanjianci" unicode="&#xe6c5;" 
d="M544 156q-1 0 -2.5 -0.5t-3.5 -0.5q-3 -1 -5 -2q-11 -3 -17 -12.5t-3 -20.5t13 -17t21 -3q4 1 6 2q5 1 7 2q11 3 16 13t2 21t-13 16.5t-21 1.5zM303 303l24 -31q9 9 21 19q12 12 37 28q11 8 15 11q-6 21 -9 41l-36 -27v152h-73v-37h35v-125q1 -22 -14 -31zM391 527h174
v-34h-174v34zM377 552q-10 13 -25 32q-18 21 -26 31l-33 -19q10 -12 24 -32q17 -22 26 -34zM575 267q52 0 49 48v287h-224v-36h184v-238q3 -25 -27 -22h-49q6 -24 8 -39h59zM777 163l-50 50q57 66 77 150q25 109 -18 214t-137 165q-92 60 -204.5 55.5t-200.5 -70.5
q-89 -67 -123.5 -174.5t-2.5 -214.5q34 -107 124.5 -176t202.5 -73q11 -1 19.5 7t9 19.5t-7.5 19.5t-19 9q-94 3 -171 61.5t-105 148.5t1.5 181.5t104.5 147.5t170 59.5t173 -46.5q79 -51 115 -140t15 -180q-13 -57 -47 -105.5t-83 -79.5q-10 -6 -12.5 -17.5t3.5 -21
t17.5 -12t20.5 3.5q18 12 39 30l50 -49l95 -96q8 -8 19.5 -8t19.5 8t8 19.5t-8 19.5zM544 454h-137v-126h137v126v0zM508 361h-65v61h65v-61z" />
    <glyph glyph-name="tihuan" unicode="&#xe627;" 
d="M99 601q4 6 10.5 15t28 35t45 49.5t59.5 51.5t73 47q64 34 138.5 41.5t142 -8.5t121.5 -50q48 -30 83.5 -61t47.5 -47l12 -16l92 52q1 1 2.5 1.5t4.5 1t5.5 -0.5t4.5 -4.5t2 -9.5v-329q0 -4 -0.5 -8.5t-6 -10t-15.5 -0.5q-21 10 -284 160q-16 7 -17 14t6 11l6 3l89 51
q-6 7 -16.5 18.5t-43 37.5t-65.5 41q-60 31 -118 34t-126 -22q-47 -18 -95.5 -61t-84.5 -104zM925 166q-4 -5 -10.5 -14t-28 -35t-45 -49.5t-59.5 -52t-73 -47.5q-64 -33 -138.5 -40.5t-142 8.5t-121.5 50q-48 30 -84.5 62.5t-45.5 43.5t-13 18v0l-92 -53q-1 0 -2.5 -0.5
t-4.5 -1t-5.5 0t-4.5 4t-2 10.5v329q0 3 0.5 7.5t6 10t15.5 1.5q21 -10 284 -160q16 -7 17 -14t-6 -11l-6 -4l-89 -50q6 -7 16.5 -18.5t43 -37.5t65.5 -41q60 -32 118 -35t126 23q47 17 95.5 60t84.5 104zM925 166z" />
    <glyph glyph-name="warning" unicode="&#xe611;" 
d="M512 892q103 0 197 -40.5t162 -108.5t108.5 -162t40.5 -197t-40.5 -197t-108.5 -162t-162 -108.5t-197 -40.5t-197 40.5t-162 108.5t-108.5 162t-40.5 197t40.5 197t108.5 162t162 108.5t197 40.5zM512 210q-32 0 -54.5 -22.5t-22.5 -54.5t22.5 -54.5t54.5 -22.5
t54.5 22.5t22.5 54.5t-22.5 54.5t-54.5 22.5zM509.5 270q27.5 0 47 19.5t19.5 46.5v310q0 27 -19.5 46.5t-47 19.5t-46.5 -19.5t-19 -46.5v-310q0 -27 19 -46.5t46.5 -19.5z" />
    <glyph glyph-name="arrow_left" unicode="&#xe616;" 
d="M691 129l-255 255l251 252q17 14 17 36q0 20 -14 34t-34 14q-19 0 -33 -13v0l-288 -288v0q-15 -14 -15 -35v0v0q0 -20 15 -35v0l288 -288v0q14 -13 33 -13q20 0 34 14t14 34q0 19 -13 33z" />
    <glyph glyph-name="arrow_right" unicode="&#xe617;" 
d="M704 384v0v0q0 21 -15 35v0l-288 288v0q-14 13 -33 13q-20 0 -34 -14t-14 -34q0 -22 17 -36l251 -252l-255 -255v0q-13 -14 -13 -33q0 -20 14 -34t34 -14q19 0 33 13v0l288 288v0q15 15 15 35v0v0z" />
    <glyph glyph-name="pen_" unicode="&#xe67b;" 
d="M748 582l-136 135l-405 -405l135 -135zM883 717q14 14 14 33.5t-14 33.5l-68 68q-14 13 -33.5 13t-33.5 -13l-102 -102l135 -135zM976 0h-928q-20 0 -34 -14t-14 -34t14 -34t34 -14h928q20 0 34 14t14 34t-14 34t-34 14zM173 278l-45 -179l180 44z" />
    <glyph glyph-name="pen_1" unicode="&#xe67c;" 
d="M979 784l-68 68q-14 13 -33.5 13t-33.5 -13l-102 -102l135 -134l102 101q14 14 14 33.5t-14 33.5zM848 -16h-736v736h534l96 96h-678q-20 0 -34 -14t-14 -34v-832q0 -20 14 -34t34 -14h832q20 0 34 14t14 34v675l-96 -96v-531zM844 582l-136 135l-405 -405l135 -135z
M224 99l180 44l-135 135z" />
    <glyph glyph-name="power" unicode="&#xe687;" 
d="M496 368q20 0 34 14t14 34v432q0 20 -14 34t-34 14t-34 -14t-14 -34v-432q0 -20 14 -34t34 -14zM672 765v0q-8 3 -16 3q-20 0 -34 -14t-14 -34v0q0 -15 9 -27.5t23 -17.5v0q100 -43 162 -135t62 -204q0 -152 -108 -260t-260 -108t-260 108t-108 260q0 112 62 204t162 135
v0q13 5 22 18t9 27q0 20 -14 34t-34 14q-8 0 -15 -3v0q-129 -52 -208.5 -169t-79.5 -260q0 -192 136 -328t328 -136t328 136t136 328q0 143 -79.5 260t-208.5 169z" />
    <glyph glyph-name="volume_" unicode="&#xe6b6;" 
d="M576 640q-17 0 -30 -11v0l-163 -133h-159v0q-20 0 -34 -14t-14 -34v-160q0 -20 14 -34t34 -14h160l164 -119v0q13 -9 28 -9q20 0 34 14t14 34v432q0 20 -14 34t-34 14zM766 593l-45 -45q63 -79 63 -180t-63 -180l45 -45q34 40 58 106t24 119v0q0 127 -82 225z" />
    <glyph glyph-name="iconfont-xuhao-yaoqing" unicode="&#xe69b;" 
d="M578 -29q-73 -11 -146 -12q-344 0 -344 95v55q0 52 68 97.5t161 63.5q4 2 9.5 6t13.5 18.5t4 30.5q-17 20 -28 43.5t-15 37.5l-3 13q-14 6 -21 16q-11 14 -18 39.5t-5 44.5q1 10 3 15.5t3.5 6l3 1t1.5 1.5q-17 48 -11.5 98t29.5 93q22 38 56.5 57t66.5 18t57.5 -12
t34.5 -27q35 7 60 -9.5t35.5 -45t14.5 -62.5t1.5 -62.5t-8.5 -45.5q1 -1 3 -2.5t4.5 -14t1.5 -34t-12 -41.5t-21 -30l-10 -9q-1 -12 -13.5 -38.5t-30.5 -50.5q-7 -14 -5 -26q-16 -25 -27 -63.5t-11 -67.5q0 -59 26.5 -110.5t71.5 -86.5zM936 168q0 -86 -61 -147t-147.5 -61
t-147.5 61t-61 147t61 147t147.5 61t147.5 -61t61 -147zM865 168l-117 101q-2 1 -4.5 1.5t-7 -3.5t-4.5 -13v-39h-126v0q-7 0 -11.5 -4.5t-4.5 -11.5v0v-62q0 -7 4.5 -11.5t11.5 -4.5h126v-39q0 -9 4 -13t7.5 -3t4.5 0z" />
    <glyph glyph-name="iconfont-guanyuwomen-" unicode="&#xe6ac;" 
d="M935 109v-1v0q0 -11 -8 -18.5t-18 -7.5h-197q11 2 18.5 11.5t7.5 20.5v0v0v0q0 5 -0.5 13.5t-5 31.5t-13 43t-26.5 42.5t-42 34.5q-17 9 -26 12t-19.5 5t-13.5 3l1 52q-21 16 -27 65q-8 -2 -12.5 6.5t-5.5 20.5q0 2 -0.5 9.5t-1 12.5t0 11.5t3 9.5t7.5 2q-6 44 -5 58
q3 32 31.5 57.5t70.5 28.5q49 -2 74 -27t28 -59q1 -14 -4 -58q4 1 6.5 -2t3 -9t0 -11.5t-1 -13t-0.5 -9.5q-1 -11 -5.5 -20t-12.5 -7q-3 -22 -9.5 -38t-12.5 -21l-5 -6l1 -52q13 -8 67 -30q27 -11 43 -14t39 -14q19 -10 33.5 -27.5t21 -35t10.5 -33.5t4 -26l1 -10v0v0z
M540 287q29 -12 47 -15t43 -16q21 -10 37 -29.5t23 -37.5t11.5 -38.5t5 -28t0.5 -11.5v0q0 -12 -8.5 -20.5t-20.5 -8.5h-560q-12 0 -20.5 8.5t-8.5 20.5v0v0q0 4 0.5 11.5t4.5 28t11.5 38.5t23.5 37.5t37 29.5q25 13 43 15.5t47 14.5q27 11 45.5 19.5t23.5 11.5l5 3l1 58
q-3 2 -7 6t-12 22.5t-11 42.5q-9 -2 -13.5 7.5t-5.5 22.5q0 2 -1 10.5t-1.5 14t0 12.5t3.5 10t8 2q-7 48 -5 64q3 35 34 63.5t78 30.5q54 -2 81.5 -29t30.5 -65q2 -15 -5 -64q5 1 7.5 -2t3 -10t0.5 -12.5t-1 -14t-1 -10.5q-1 -13 -5.5 -22.5t-14.5 -6.5q-3 -25 -10 -42.5
t-13 -23.5l-6 -6l1 -57l0.5 -0.5t1.5 -1t3.5 -2t5.5 -3t7 -3t10 -4.5t12.5 -5.5t15 -6.5t18.5 -8z" />
    <glyph glyph-name="iconfont-xiugaitouxiang-" unicode="&#xe6ae;" 
d="M742 110q-2 -28 -24 -48t-50 -20h-509q-29 0 -50.5 20t-23.5 48l-1 1q0 8 1 17t8 26.5t18.5 31t36 26.5t57.5 17q106 15 140 59l2 4v23q-43 30 -64 102q-13 4 -22.5 17.5t-12.5 31.5q-5 36 16 55q-2 27 -2 55q0 62 44.5 106t106.5 44v0q40 0 75 -19q58 -25 82 -12
q-7 -25 -26 -42q8 -15 14.5 -37.5t6.5 -39.5q0 -28 -3 -57q20 -19 15 -53q-3 -18 -12.5 -31.5t-22.5 -17.5q-22 -70 -63 -100v-25q1 -2 3.5 -5t13 -12t25 -16.5t41.5 -16t60 -13.5q30 -4 53 -15t35 -23.5t20 -28.5t10 -26t2 -20v0l1 -5zM712 270v0q0 24 16.5 40.5t40.5 16.5
v0h113q24 0 41 -17t17 -40.5t-17 -40t-41 -16.5h-113q-24 0 -40.5 16.5t-16.5 40.5zM598 441v0q0 23 16.5 40t39.5 17h230q23 0 39.5 -16.5t16.5 -40.5v0v0q0 -23 -16.5 -40t-39.5 -17h-230q-23 0 -39.5 16.5t-16.5 40.5v0z" />
    <glyph glyph-name="biaoqian" unicode="&#xe737;" 
d="M817 300q0 28 -20 49l-385 385q-20 19 -55 35q-34 14 -63 14h-225q-28 0 -48.5 -20.5t-20.5 -48.5v-224q0 -30 14 -63q16 -36 35 -55l386 -385q20 -20 49 -20q28 0 49 20l264 264q20 21 20 49zM221 561q-20 -19 -48.5 -19t-48.5 19.5t-20 48.5t20 48.5t48.5 19.5
t48.5 -19.5t20 -48.5q1 -28 -20 -49zM1004 349l-385 385q-20 19 -55 35q-34 14 -63 14h-122q31 0 63 -14q37 -15 55 -35l386 -385q20 -21 20 -49q0 -29 -20 -49l-253 -253q16 -16 29 -25q11 -7 31 -7q29 0 50 20l264 265q20 20 20 49q0 28 -20 49z" />
    <glyph glyph-name="huodong" unicode="&#xe668;" 
d="M821 713q-17 11 -35 -6q-3 -3 -7 -6q-17 -17 -26 -24t-28.5 -15.5t-41 -7.5t-56.5 8t-83 23q-65 23 -131 20q-53 -2 -103 -20q-57 -21 -93 -51l-3 -3q-9 -6 -9 -17q0 -5 2 -9l250 -574q5 -12 18 -12q4 0 8 1q12 6 12 19q0 4 -2 8l-116 266l2 4q5 10 8 15.5t9 15.5t11 15
t13 13.5t16.5 13t19.5 10t24.5 8t29.5 5t36 2t42 -2.5h15q38 0 72 17q35 17 67 51q51 56 78 137q10 30 13 53q4 33 -12 43v0z" />
    <glyph glyph-name="guanjia" unicode="&#xe60b;" 
d="M512 -128q-139 0 -257 68.5t-186.5 186.5t-68.5 257t68.5 257t186.5 186.5t257 68.5t257 -68.5t186.5 -186.5t68.5 -257t-68.5 -257t-186.5 -186.5t-257 -68.5zM852 68v434q0 15 -17 21l-93 47q-20 13 -34 -9l-175 -302q-10 -12 -25.5 -12t-21.5 12l-175 302
q-3 7 -13.5 10.5t-20.5 -1.5l-94 -47q-12 -6 -12 -21v-434q0 -9 8 -17t17 -8h631q9 0 17 8t8 17v0zM644 557q12 -3 20.5 2t8.5 15q9 34 9 64v4q0 30 -9 64q-3 10 -11.5 15t-17.5 2q-38 -10 -94 -39q-3 0 -3.5 1t-0.5 4h-77v-5q-3 2 -14.5 8t-19.5 10t-23.5 10t-32.5 11
q-12 3 -20.5 -2t-8.5 -15q-9 -34 -9 -64v-4q0 -30 9 -64q0 -10 8.5 -15t20.5 -2q42 11 94 42v-4h73l4 4q36 -26 94 -42v0zM776 357h-94q-10 0 -18 -8t-8 -17q0 -10 8 -16t18 -6h94q9 0 17 8t8 18q0 9 -7.5 15t-17.5 6v0z" />
    <glyph glyph-name="new1" unicode="&#xe62a;" 
d="M482 894l-480 -480v-541l1022 1021h-542zM316 256l-191 40q-3 0 -12 2q10 -8 21 -19l102 -103l-40 -40l-181 181l45 45l184 -40l12 -2q-8 7 -17 16l-102 103l39 40l181 -181zM394 335l-181 180l105 105l35 -35l-63 -63l38 -37l58 58l35 -35l-59 -58l39 -38l67 66l35 -35z
M523 697l85 -148l-46 -47l-229 133l45 45l148 -94q3 -2 7 -5q-2 4 -5 8l-87 154l43 43l153 -92q4 -2 5 -3l-4 6l-96 147l43 43l133 -229l-45 -45l-148 86l-6 4l1.5 -2.5t2.5 -3.5z" />
    <glyph glyph-name="hezuo" unicode="&#xe69a;" 
d="M1015 579q-2 -42 -15.5 -77.5t-30.5 -56.5q-16 -19 -72 -79l-228 237l-115 -107h-1q-22 -22 -53 -35t-44 -15t-20 -2h-1h-8q-61 0 -132 61q234 242 311 309q23 20 62.5 35t84.5 15v0q104 0 184 -85q84 -90 78 -200zM243 505l13 -13l10.5 -10.5t25 -21t37.5 -25.5
t46 -19.5t52 -8.5h11q11 1 27 3.5t52 18t62 40.5l89 82l126 -131v0l116 -123v0q12 -12 11.5 -32.5t-14.5 -34.5q-15 -15 -34.5 -17t-32.5 11l-152 143l-14 -15l-12 -12l147 -147q13 -12 11 -32t-17 -35t-36 -16q-19 -2 -31 11l-150 150l-26 -26l148 -153v0q12 -13 11 -31
q-1 -21 -17 -36.5t-36 -16.5q-19 -1 -31 11l-16 16q22 23 22 56t-24 56q-23 23 -56 23q-8 0 -16 -1q5 39 -23 66q-23 23 -56 23q-8 0 -15 -1v9q0 33 -23.5 56.5t-56.5 23.5q-9 0 -18 -3q1 6 1 12q0 33 -23.5 56t-56.5 23q-34 0 -57 -23l-72 -72l5 6q-72 63 -93 98q-1 2 -3 4
q-54 90 -45 174t79 156q82 84 198 76q48 -3 89 -20t65 -38q13 -12 45 -44q-99 -98 -229 -234zM243 385q13 12 30.5 12t30.5 -12.5t13 -30t-13 -30.5l-113 -114q-12 -13 -30 -13t-31 12.5t-13 30.5t13 31zM317 354v0v0v0zM340 296q13 13 31 13t30.5 -13t12.5 -30.5t-12 -30.5
l-113 -114q-13 -13 -31 -13t-30.5 13t-12.5 30.5t12 30.5zM435 208q13 13 31 13t30 -12v0q13 -13 13 -31t-13 -30l-113 -114q-12 -13 -30 -13t-30.5 12.5t-13 30.5t12.5 31zM530 121q13 12 31 12t30 -12v0q13 -13 13 -31t-13 -30l-113 -114q-12 -13 -30 -13t-30.5 12.5
t-12.5 30.5t12 31zM606 -12q12 -13 10.5 -32.5t-16.5 -34t-34.5 -16t-31.5 10.5l-17 17l72 72l17 -17v0z" />
    <glyph glyph-name="icon-test" unicode="&#xe657;" 
d="M967 875h-364l-90 -145l136 -259zM603 471l-227 404h-317l272 -404h272zM513 428q-113 0 -193 -79t-80 -190.5t80 -190.5t193 -79t192.5 79t79.5 190.5t-79.5 190.5t-192.5 79zM591 36h-157v42h56v165h-48v32q37 7 61 22h38v-219h49v-42h1z" />
    <glyph glyph-name="icon-test1" unicode="&#xe658;" 
d="M603 471l-227 404h-317l272 -404h272zM967 875h-364l-90 -145l136 -259zM513 428q-113 0 -193 -79t-80 -190.5t80 -190.5t193 -79t192.5 79t79.5 190.5t-79.5 190.5t-192.5 79zM595 36h-175v30q57 51 85 87.5t28 65.5q0 20 -10.5 31t-28.5 11q-24 0 -48 -27l-28 29
q37 39 83 39q37 0 59.5 -22t22.5 -58q0 -60 -87 -145q26 3 42 3h57v-44z" />
    <glyph glyph-name="icon-test2" unicode="&#xe659;" 
d="M603 471l-227 404h-317l272 -404h272zM967 875h-364l-90 -145l136 -259zM513 428q-113 0 -193 -79t-80 -190.5t80 -190.5t193 -79t192.5 79t79.5 190.5t-79.5 190.5t-192.5 79zM501 31q-55 0 -87 37l24 32q28 -26 58 -26q21 0 33 9.5t12 26.5q0 21 -16 31t-56 10v38
q63 0 63 40q0 32 -35 33q-24 -1 -49 -24l-26 32q37 32 78 32q38 0 61 -18t23 -51q0 -43 -43 -60v-2q23 -6 37.5 -22.5t14.5 -41.5q0 -35 -26.5 -55.5t-65.5 -20.5z" />
    <glyph glyph-name="jiameng" unicode="&#xe672;" 
d="M512 -128q-139 0 -257 68.5t-186.5 186.5t-68.5 257t68.5 257t186.5 186.5t257 68.5t257 -68.5t186.5 -186.5t68.5 -257t-68.5 -257t-186.5 -186.5t-257 -68.5zM512 856q-96 0 -183.5 -37t-151 -100.5t-100.5 -151t-37 -183.5t37 -183.5t100.5 -151t151 -100.5t183.5 -37
t183.5 37t151 100.5t100.5 151t37 183.5t-37 183.5t-100.5 151t-151 100.5t-183.5 37zM219 115v49h54v153h477v-152h54v-50h-585zM251 367v286h207v-286h-207zM310 605v-71h91v71h-91zM310 416h91v74h-91v-74zM339 266v-101h77v101h-77zM513 330q-5 5 -16 13q-31 21 -35 24
q60 56 54 173v120h253v-239q6 -77 -69 -77h-88q-7 29 -13 48h74q39 -2 37 32v10h-144q-8 -46 -53 -104zM472 266v-101h77v101h-77zM576 522q0 -6 -3 -24v-22h139v48h-136v-2zM576 613v-50h136v49h-136v1zM684 266h-77v-101h77v101z" />
    <glyph glyph-name="guanli1" unicode="&#xe936;" 
d="M410 780h-291q-12 0 -20.5 -8.5t-8.5 -20.5v-308q0 -12 8.5 -20.5t20.5 -8.5h291q12 0 20.5 8.5t8.5 20.5v308q0 12 -8.5 20.5t-20.5 8.5zM410 314h-291q-12 0 -20.5 -8.5t-8.5 -20.5v-291q0 -12 8.5 -20.5t20.5 -8.5h291q12 0 20.5 8.5t8.5 20.5v291q0 12 -8.5 20.5
t-20.5 8.5zM876 314h-291q-12 0 -20.5 -8.5t-8.5 -20.5v-291q0 -12 8.5 -20.5t20.5 -8.5h291q12 0 20.5 8.5t8.5 20.5v291q0 12 -8.5 20.5t-20.5 8.5zM936 644l-167 167q-17 17 -40.5 17t-39.5 -17l-168 -167q-17 -17 -17 -40.5t17 -39.5l168 -168q16 -17 39.5 -17t40.5 17
l167 168q17 16 17 39.5t-17 40.5zM729 449l-155 155l155 155l155 -155z" />
  </font>
</defs>
</svg>
